<svg width="141" height="30" viewBox="0 0 141 30" fill="none" xmlns="http://www.w3.org/2000/svg">
<path d="M16.56 15.24L21.6 0.52H27.2L17 29H10.68L0.24 0.52H6L11.16 15.24C12.36 18.8667 13.2667 21.8267 13.88 24.12C14.5733 21.48 15.4667 18.52 16.56 15.24ZM33.6025 5.68H28.6425V0.959999H33.6025V5.68ZM33.6425 29H28.6025V8.36H33.6425V29ZM45.8241 29.56C39.7974 29.56 36.6507 27.1867 36.3841 22.44H41.3041C41.4374 23.72 41.8507 24.6267 42.5441 25.16C43.2641 25.6933 44.3841 25.96 45.9041 25.96C48.6241 25.96 49.9841 25.1333 49.9841 23.48C49.9841 22.7333 49.6907 22.16 49.1041 21.76C48.5174 21.36 47.4641 21.0267 45.9441 20.76L43.5841 20.36C39.0774 19.6133 36.8241 17.5333 36.8241 14.12C36.8241 12.1733 37.5707 10.6533 39.0641 9.56C40.5574 8.44 42.6641 7.88 45.3841 7.88C51.2774 7.88 54.3174 10.2133 54.5041 14.88H49.7441C49.6907 13.6533 49.3041 12.7867 48.5841 12.28C47.8641 11.7467 46.7974 11.48 45.3841 11.48C42.9841 11.48 41.7841 12.28 41.7841 13.88C41.7841 14.5733 42.0507 15.12 42.5841 15.52C43.1174 15.8933 43.9974 16.1867 45.2241 16.4L47.8241 16.8C50.3307 17.2533 52.1441 17.9733 53.2641 18.96C54.4107 19.9467 54.9841 21.32 54.9841 23.08C54.9841 25.16 54.1841 26.76 52.5841 27.88C50.9841 29 48.7307 29.56 45.8241 29.56ZM76.7328 29H71.6928C71.4528 28.5733 71.2661 27.7333 71.1328 26.48C69.7461 28.48 67.5328 29.48 64.4928 29.48C62.2261 29.48 60.4128 28.9333 59.0528 27.84C57.7195 26.7467 57.0528 25.2267 57.0528 23.28C57.0528 19.52 59.6928 17.3733 64.9728 16.84L68.0928 16.56C69.1328 16.4267 69.8795 16.1867 70.3328 15.84C70.7861 15.4667 71.0128 14.92 71.0128 14.2C71.0128 13.32 70.7195 12.68 70.1328 12.28C69.5728 11.8533 68.6128 11.64 67.2528 11.64C65.7861 11.64 64.7328 11.8933 64.0928 12.4C63.4528 12.88 63.0795 13.72 62.9728 14.92H58.0128C58.3061 10.2267 61.3995 7.88 67.2928 7.88C73.0261 7.88 75.8928 9.94667 75.8928 14.08V25.08C75.8928 26.8933 76.1728 28.2 76.7328 29ZM65.6928 25.88C67.2661 25.88 68.5461 25.4533 69.5328 24.6C70.5195 23.72 71.0128 22.4667 71.0128 20.84V18.96C70.5328 19.3867 69.7461 19.6667 68.6528 19.8L65.9328 20.12C64.5995 20.28 63.6395 20.6 63.0528 21.08C62.4928 21.5333 62.2128 22.2 62.2128 23.08C62.2128 23.96 62.5061 24.6533 63.0928 25.16C63.7061 25.64 64.5728 25.88 65.6928 25.88ZM85.4153 0.52V24.16H98.9753V29H80.0153V0.52H85.4153ZM120.465 19.04V20.24H105.025C105.212 22 105.759 23.3333 106.665 24.24C107.599 25.12 108.839 25.56 110.385 25.56C112.679 25.56 114.252 24.5733 115.105 22.6H119.945C119.412 24.7067 118.292 26.3867 116.585 27.64C114.879 28.8667 112.799 29.48 110.345 29.48C107.279 29.48 104.799 28.4933 102.905 26.52C101.012 24.5467 100.065 21.9333 100.065 18.68C100.065 15.4267 100.999 12.8133 102.865 10.84C104.759 8.86667 107.225 7.88 110.265 7.88C113.385 7.88 115.865 8.90667 117.705 10.96C119.545 13.0133 120.465 15.7067 120.465 19.04ZM110.225 11.8C107.265 11.8 105.545 13.44 105.065 16.72H115.425C115.212 15.2 114.652 14 113.745 13.12C112.839 12.24 111.665 11.8 110.225 11.8ZM140.602 8.36L133.322 18.4L141.002 29H135.242L134.482 27.92C133.175 26 132.455 24.9467 132.322 24.76C131.282 23.2933 130.669 22.4 130.482 22.08C128.589 24.8267 127.242 26.7733 126.442 27.92L125.682 29H120.042L127.722 18.44L120.442 8.36H126.202L127.282 9.88C128.695 11.88 129.802 13.5067 130.602 14.76C131.909 12.7867 133.002 11.16 133.882 9.88L134.962 8.36H140.602Z" fill="white"/>
</svg>
