<svg width="99" height="21" viewBox="0 0 99 21" fill="none" xmlns="http://www.w3.org/2000/svg">
<path d="M11.592 10.368L15.12 0.0639997H19.04L11.9 20H7.476L0.168 0.0639997H4.2L7.812 10.368C8.652 12.9067 9.28667 14.9787 9.716 16.584C10.2013 14.736 10.8267 12.664 11.592 10.368ZM23.5218 3.676H20.0498V0.371999H23.5218V3.676ZM23.5498 20H20.0218V5.552H23.5498V20ZM32.0768 20.392C27.8582 20.392 25.6555 18.7307 25.4688 15.408H28.9128C29.0062 16.304 29.2955 16.9387 29.7808 17.312C30.2848 17.6853 31.0688 17.872 32.1328 17.872C34.0368 17.872 34.9888 17.2933 34.9888 16.136C34.9888 15.6133 34.7835 15.212 34.3728 14.932C33.9622 14.652 33.2248 14.4187 32.1608 14.232L30.5088 13.952C27.3542 13.4293 25.7768 11.9733 25.7768 9.584C25.7768 8.22133 26.2995 7.15733 27.3448 6.392C28.3902 5.608 29.8648 5.216 31.7688 5.216C35.8942 5.216 38.0222 6.84933 38.1528 10.116H34.8208C34.7835 9.25733 34.5128 8.65067 34.0088 8.296C33.5048 7.92267 32.7582 7.736 31.7688 7.736C30.0888 7.736 29.2488 8.296 29.2488 9.416C29.2488 9.90133 29.4355 10.284 29.8088 10.564C30.1822 10.8253 30.7982 11.0307 31.6568 11.18L33.4768 11.46C35.2315 11.7773 36.5008 12.2813 37.2848 12.972C38.0875 13.6627 38.4888 14.624 38.4888 15.856C38.4888 17.312 37.9288 18.432 36.8088 19.216C35.6888 20 34.1115 20.392 32.0768 20.392ZM53.713 20H50.185C50.017 19.7013 49.8863 19.1133 49.793 18.236C48.8223 19.636 47.273 20.336 45.145 20.336C43.5583 20.336 42.289 19.9533 41.337 19.188C40.4036 18.4227 39.937 17.3587 39.937 15.996C39.937 13.364 41.785 11.8613 45.481 11.488L47.665 11.292C48.393 11.1987 48.9156 11.0307 49.233 10.788C49.5503 10.5267 49.709 10.144 49.709 9.64C49.709 9.024 49.5036 8.576 49.093 8.296C48.701 7.99733 48.029 7.848 47.077 7.848C46.0503 7.848 45.313 8.02533 44.865 8.38C44.417 8.716 44.1556 9.304 44.081 10.144H40.609C40.8143 6.85867 42.9796 5.216 47.105 5.216C51.1183 5.216 53.125 6.66267 53.125 9.556V17.256C53.125 18.5253 53.321 19.44 53.713 20ZM45.985 17.816C47.0863 17.816 47.9823 17.5173 48.673 16.92C49.3636 16.304 49.709 15.4267 49.709 14.288V12.972C49.373 13.2707 48.8223 13.4667 48.057 13.56L46.153 13.784C45.2196 13.896 44.5476 14.12 44.137 14.456C43.745 14.7733 43.549 15.24 43.549 15.856C43.549 16.472 43.7543 16.9573 44.165 17.312C44.5943 17.648 45.201 17.816 45.985 17.816ZM59.7907 0.0639997V16.612H69.2827V20H56.0107V0.0639997H59.7907ZM84.3257 13.028V13.868H73.5177C73.6484 15.1 74.0311 16.0333 74.6657 16.668C75.3191 17.284 76.1871 17.592 77.2697 17.592C78.8751 17.592 79.9764 16.9013 80.5737 15.52H83.9617C83.5884 16.9947 82.8044 18.1707 81.6097 19.048C80.4151 19.9067 78.9591 20.336 77.2417 20.336C75.0951 20.336 73.3591 19.6453 72.0337 18.264C70.7084 16.8827 70.0457 15.0533 70.0457 12.776C70.0457 10.4987 70.6991 8.66933 72.0057 7.288C73.3311 5.90667 75.0577 5.216 77.1857 5.216C79.3697 5.216 81.1057 5.93467 82.3937 7.372C83.6817 8.80933 84.3257 10.6947 84.3257 13.028ZM77.1577 7.96C75.0857 7.96 73.8817 9.108 73.5457 11.404H80.7977C80.6484 10.34 80.2564 9.5 79.6217 8.884C78.9871 8.268 78.1657 7.96 77.1577 7.96ZM98.4213 5.552L93.3253 12.58L98.7013 20H94.6693L94.1373 19.244C93.2226 17.9 92.7186 17.1627 92.6253 17.032C91.8973 16.0053 91.468 15.38 91.3373 15.156C90.012 17.0787 89.0693 18.4413 88.5093 19.244L87.9773 20H84.0293L89.4053 12.608L84.3093 5.552H88.3413L89.0973 6.616C90.0866 8.016 90.8613 9.15467 91.4213 10.032C92.336 8.65067 93.1013 7.512 93.7173 6.616L94.4733 5.552H98.4213Z" fill="#052925"/>
</svg>
